<svg width="552" height="308" viewBox="0 0 552 308" fill="none" xmlns="http://www.w3.org/2000/svg">
<mask id="mask0_3119_2648" style="mask-type:alpha" maskUnits="userSpaceOnUse" x="0" y="0" width="552" height="308">
<path d="M0 0H552V308H0V0Z" fill="#D8D8D8"/>
</mask>
<g mask="url(#mask0_3119_2648)">
<rect x="-0.5448" width="552.997" height="308" fill="#5B6887"/>
<path opacity="0.3" fill-rule="evenodd" clip-rule="evenodd" d="M-21.6869 152.779L19.7742 137.791C26.334 135.427 33.6162 138.805 35.985 145.285L51.1091 186.456C53.4714 192.974 50.0744 200.21 43.5406 202.555L2.05348 217.555C-4.47382 219.92 -11.7755 216.535 -14.1639 210.049L-29.2424 168.865C-31.6177 162.366 -28.2207 155.137 -21.6869 152.779Z" fill="white"/>
<path opacity="0.1" fill-rule="evenodd" clip-rule="evenodd" d="M-45.1433 304.375L21.7127 280.217C32.2904 276.406 44.033 281.852 47.8527 292.296L72.2403 358.657C76.0495 369.164 70.5718 380.826 60.036 384.606L-6.86193 408.785C-17.3872 412.596 -29.1612 407.139 -33.0125 396.685L-57.3266 330.303C-61.1568 319.827 -55.6791 308.175 -45.1433 304.375Z" fill="white"/>
<path opacity="0.3" fill-rule="evenodd" clip-rule="evenodd" d="M196.513 73.4309L236.918 58.8348C243.294 56.5342 250.386 59.828 252.699 66.1392L267.422 106.225C269.761 112.53 266.427 119.57 260.051 121.877L219.634 136.473C213.277 138.768 206.178 135.467 203.865 129.15L189.161 89.0893C186.835 82.7719 190.15 75.719 196.513 73.4309Z" fill="white"/>
<path opacity="0.3" fill-rule="evenodd" clip-rule="evenodd" d="M259.34 273.702L299.748 259.118C306.112 256.817 313.217 260.104 315.543 266.422L330.242 306.497C332.581 312.814 329.247 319.868 322.883 322.162L282.463 336.759C276.105 339.041 269.006 335.766 266.667 329.435L251.974 289.354C249.661 283.055 252.976 275.996 259.34 273.702Z" fill="white"/>
<path opacity="0.122549" fill-rule="evenodd" clip-rule="evenodd" d="M329.1 199.217L346.388 193.168C349.111 192.214 352.151 193.577 353.147 196.198L359.436 212.818C360.436 215.438 359.01 218.364 356.287 219.315L338.993 225.369C336.273 226.315 333.235 224.957 332.235 222.332L325.948 205.709C324.958 203.096 326.377 200.168 329.1 199.217Z" fill="white"/>
<path opacity="0.6" fill-rule="evenodd" clip-rule="evenodd" d="M208.715 258.527L206.568 259.451L136.382 284.794C125.338 288.799 112.993 283.095 108.964 272.113L85.9072 209.19L88.0548 208.273L158.215 182.936C169.285 178.924 181.63 184.635 185.645 195.63L208.715 258.527Z" fill="white"/>
<path opacity="0.2" fill-rule="evenodd" clip-rule="evenodd" d="M173.661 148.596C171.233 148.596 168.78 149.009 166.366 149.875L96.2053 175.238C85.1551 179.224 79.4023 191.479 83.4176 202.448L85.91 209.193L88.0576 208.282L158.218 182.932C160.632 182.066 163.073 181.659 165.487 181.659C174.247 181.659 182.492 187.028 185.648 195.626L208.705 258.433C218.298 253.697 223.107 242.463 219.345 232.217L193.796 162.55C190.653 153.964 182.407 148.596 173.661 148.596Z" fill="white"/>
<path opacity="0.2" fill-rule="evenodd" clip-rule="evenodd" d="M85.9334 209.293C76.3214 214.035 71.5187 225.276 75.2542 235.502L100.804 305.175C103.966 313.774 112.218 319.142 120.978 319.142C123.379 319.142 125.833 318.735 128.247 317.87L198.394 292.507C209.451 288.515 215.223 276.253 211.182 265.29L208.716 258.526L206.581 259.45L136.395 284.8C133.98 285.666 131.54 286.073 129.126 286.073C120.366 286.073 112.114 280.704 108.964 272.112L85.9334 209.293Z" fill="white"/>
<path fill-rule="evenodd" clip-rule="evenodd" d="M85.946 209.293L108.964 272.112C112.114 280.704 120.379 286.073 129.125 286.073C131.54 286.073 133.993 285.666 136.381 284.8L206.568 259.45L136.381 284.8C133.993 285.666 131.54 286.073 129.125 286.073C120.379 286.073 112.114 280.704 108.964 272.112L85.946 209.293Z" fill="#95989B"/>
<path opacity="0.0630301" fill-rule="evenodd" clip-rule="evenodd" d="M470.925 91.3821L504.823 79.1522C510.173 77.2245 516.123 79.9843 518.064 85.2724L530.416 118.86C532.378 124.143 529.581 130.042 524.232 131.975L490.323 144.204C484.99 146.127 479.034 143.362 477.093 138.068L464.757 104.502C462.805 99.2088 465.586 93.2992 470.925 91.3821Z" fill="white"/>
<path opacity="0.15" fill-rule="evenodd" clip-rule="evenodd" d="M479.625 14.5656L491.828 10.163C493.754 9.46902 495.896 10.4625 496.594 12.3662L501.041 24.4572C501.747 26.3589 500.74 28.4825 498.815 29.1784L486.608 33.581C484.688 34.273 482.544 33.2776 481.846 31.3721L477.405 19.2886C476.702 17.3831 477.703 15.2557 479.625 14.5656Z" fill="white"/>
<path opacity="0.139039" fill-rule="evenodd" clip-rule="evenodd" d="M514.465 110.097L564.315 92.1121C572.182 89.2773 580.932 93.3359 583.786 101.112L601.951 150.506C604.837 158.275 600.724 166.95 592.857 169.792L542.991 187.777C535.148 190.604 526.39 186.538 523.536 178.754L505.394 129.391C502.524 121.607 506.614 112.917 514.465 110.097Z" fill="white"/>
<path opacity="0.060519" fill-rule="evenodd" clip-rule="evenodd" d="M345.185 106.45L372.642 96.9114C376.974 95.4079 381.794 97.5605 383.366 101.685L393.371 127.882C394.96 132.003 392.695 136.604 388.362 138.111L360.897 147.65C356.577 149.15 351.753 146.993 350.181 142.864L340.189 116.684C338.608 112.555 340.861 107.946 345.185 106.45Z" fill="white"/>
<path opacity="0.060519" fill-rule="evenodd" clip-rule="evenodd" d="M500.69 277.867L542.892 263.191C549.552 260.878 556.959 264.19 559.376 270.535L574.754 310.839C577.196 317.178 573.714 324.256 567.055 326.576L524.84 341.251C518.2 343.558 510.786 340.24 508.369 333.888L493.011 293.61C490.582 287.258 494.044 280.167 500.69 277.867Z" fill="white"/>
<path opacity="0.1" fill-rule="evenodd" clip-rule="evenodd" d="M34.2633 49.7371L52.7079 43.0826C55.6186 42.0337 58.8561 43.5354 59.9122 46.4127L66.6333 64.6882C67.7009 67.5627 66.179 70.7724 63.2684 71.8242L44.818 78.4787C41.916 79.5247 38.6755 78.0201 37.6195 75.14L30.9071 56.8759C29.8453 53.9957 31.3584 50.7802 34.2633 49.7371Z" fill="white"/>
<path opacity="0.0806315" fill-rule="evenodd" clip-rule="evenodd" d="M343.427 -26.179L387.154 -41.955C394.055 -44.4416 401.73 -40.8815 404.234 -34.0602L420.167 9.26607C422.698 16.0806 419.091 23.69 412.19 26.1835L368.449 41.9595C361.57 44.4393 353.887 40.8724 351.384 34.0443L335.47 -9.25476C332.953 -16.0829 336.54 -23.7059 343.427 -26.179Z" fill="white"/>
<path opacity="0.0630766" fill-rule="evenodd" clip-rule="evenodd" d="M115.814 31.7491L166.162 13.5841C174.108 10.7209 182.945 14.8201 185.828 22.6744L204.175 72.5616C207.089 80.4081 202.935 89.1698 194.99 92.0409L144.625 110.206C136.703 113.061 127.858 108.954 124.975 101.092L106.652 51.2361C103.754 43.374 107.884 34.5966 115.814 31.7491Z" fill="white"/>
<path opacity="0.202074" fill-rule="evenodd" clip-rule="evenodd" d="M438.724 220.73L457.168 214.075C460.079 213.026 463.316 214.528 464.372 217.405L471.094 235.681C472.161 238.555 470.639 241.765 467.729 242.817L449.278 249.471C446.376 250.517 443.136 249.013 442.08 246.133L435.367 227.869C434.306 224.988 435.819 221.773 438.724 220.73Z" fill="white"/>
</g>
</svg>
